<svg xmlns="http://www.w3.org/2000/svg" width="420" height="900" viewBox="0 0 420 900">
<defs><linearGradient id="hero" x1="0" y1="0" x2="1" y2="1"><stop offset="0%" stop-color="#4B06B9"/><stop offset="100%" stop-color="#FF8A8A"/></linearGradient></defs>
<rect width="420" height="900" rx="40" fill="#131313"/>
<rect x="18" y="18" width="384" height="190" rx="30" fill="url(#hero)"/>
<text x="42" y="58" fill="#FFF4F8" font-size="15" font-family="DejaVu Sans" font-weight="700">FEATURED NOW</text>
<text x="42" y="118" fill="#FFF4F8" font-size="36" font-family="DejaVu Sans" font-weight="700">Kurdistan TV</text>
<text x="42" y="148" fill="#D8B7C8" font-size="16" font-family="DejaVu Sans">Kurdish • Frontend only</text>
<rect x="42" y="164" width="156" height="28" rx="14" fill="#131313dd"/><text x="68" y="183" fill="#FFF4F8" font-size="14" font-family="DejaVu Sans">Watch Placeholder</text>
<rect x="18" y="224" width="384" height="126" rx="28" fill="#241428"/>
<text x="38" y="264" fill="#FFF4F8" font-size="28" font-family="DejaVu Sans" font-weight="700">Browse</text>
<rect x="38" y="292" width="58" height="28" rx="14" fill="#4B06B9"/><text x="52" y="311" fill="#FFF4F8" font-size="13" font-family="DejaVu Sans">All</text><rect x="106" y="292" width="58" height="28" rx="14" fill="#3a1b42"/><text x="120" y="311" fill="#FFF4F8" font-size="13" font-family="DejaVu Sans">News</text><rect x="174" y="292" width="58" height="28" rx="14" fill="#3a1b42"/><text x="188" y="311" fill="#FFF4F8" font-size="13" font-family="DejaVu Sans">Sports</text><rect x="242" y="292" width="58" height="28" rx="14" fill="#3a1b42"/><text x="256" y="311" fill="#FFF4F8" font-size="13" font-family="DejaVu Sans">Kids</text><rect x="310" y="292" width="58" height="28" rx="14" fill="#3a1b42"/><text x="324" y="311" fill="#FFF4F8" font-size="13" font-family="DejaVu Sans">Music</text><rect x="18" y="368" width="174" height="164" rx="24" fill="#2a1630" stroke="#4d2857" stroke-width="2"/><rect x="30" y="380" width="150" height="86" rx="18" fill="url(#hero)"/><text x="40" y="434" fill="#FFF4F8" font-size="26" font-family="DejaVu Sans" font-weight="700">KU</text><text x="32" y="488" fill="#FFF4F8" font-size="18" font-family="DejaVu Sans" font-weight="700">Kurdistan TV</text><rect x="32" y="500" width="48" height="20" rx="10" fill="#4B06B9"/><text x="43" y="514" fill="#131313" font-size="11" font-family="DejaVu Sans" font-weight="700">LIVE</text><rect x="210" y="368" width="174" height="164" rx="24" fill="#2a1630" stroke="#4d2857" stroke-width="2"/><rect x="222" y="380" width="150" height="86" rx="18" fill="url(#hero)"/><text x="232" y="434" fill="#FFF4F8" font-size="26" font-family="DejaVu Sans" font-weight="700">RU</text><text x="224" y="488" fill="#FFF4F8" font-size="18" font-family="DejaVu Sans" font-weight="700">Rudaw</text><rect x="224" y="500" width="48" height="20" rx="10" fill="#4B06B9"/><text x="235" y="514" fill="#131313" font-size="11" font-family="DejaVu Sans" font-weight="700">LIVE</text><rect x="18" y="552" width="174" height="164" rx="24" fill="#2a1630" stroke="#4d2857" stroke-width="2"/><rect x="30" y="564" width="150" height="86" rx="18" fill="url(#hero)"/><text x="40" y="618" fill="#FFF4F8" font-size="26" font-family="DejaVu Sans" font-weight="700">BB</text><text x="32" y="672" fill="#FFF4F8" font-size="18" font-family="DejaVu Sans" font-weight="700">BBC News</text><rect x="32" y="684" width="48" height="20" rx="10" fill="#4B06B9"/><text x="43" y="698" fill="#131313" font-size="11" font-family="DejaVu Sans" font-weight="700">LIVE</text><rect x="210" y="552" width="174" height="164" rx="24" fill="#2a1630" stroke="#4d2857" stroke-width="2"/><rect x="222" y="564" width="150" height="86" rx="18" fill="url(#hero)"/><text x="232" y="618" fill="#FFF4F8" font-size="26" font-family="DejaVu Sans" font-weight="700">ES</text><text x="224" y="672" fill="#FFF4F8" font-size="18" font-family="DejaVu Sans" font-weight="700">ESPN</text><rect x="224" y="684" width="48" height="20" rx="10" fill="#4B06B9"/><text x="235" y="698" fill="#131313" font-size="11" font-family="DejaVu Sans" font-weight="700">LIVE</text><rect x="18" y="826" width="384" height="56" rx="26" fill="#241428"/><circle cx="122" cy="854" r="14" fill="#ff78a033"/><text x="102" y="860" fill="#FFF4F8" font-size="14" font-family="DejaVu Sans">Home</text><circle cx="300" cy="854" r="14" fill="#fff4f820"/><text x="270" y="860" fill="#D8B7C8" font-size="14" font-family="DejaVu Sans">Settings</text></svg>