<svg xmlns="http://www.w3.org/2000/svg" width="1280" height="720" viewBox="0 0 1280 720">
<defs><linearGradient id="g" x1="0" y1="0" x2="1" y2="1"><stop offset="0%" stop-color="#1a091d"/><stop offset="100%" stop-color="#35113a"/></linearGradient></defs>
<rect width="1280" height="720" fill="#131313"/>
<rect x="26" y="26" width="270" height="668" rx="36" fill="#2a1630"/>
<text x="56" y="92" fill="#D8B7C8" font-size="24" font-family="DejaVu Sans">Browse</text>
<text x="56" y="132" fill="#FFF4F8" font-size="40" font-family="DejaVu Sans" font-weight="700">tv-app</text>
<rect x="48" y="172" width="220" height="44" rx="18" fill="#4b06b9" stroke="#ff78a0" stroke-width="2"/><text x="72" y="201" fill="#FFF4F8" font-size="22" font-family="DejaVu Sans">All</text><rect x="48" y="230" width="220" height="44" rx="18" fill="#3a1b42" stroke="none" stroke-width="2"/><text x="72" y="259" fill="#FFF4F8" font-size="22" font-family="DejaVu Sans">News</text><rect x="48" y="288" width="220" height="44" rx="18" fill="#3a1b42" stroke="none" stroke-width="2"/><text x="72" y="317" fill="#FFF4F8" font-size="22" font-family="DejaVu Sans">Sports</text><rect x="48" y="346" width="220" height="44" rx="18" fill="#3a1b42" stroke="none" stroke-width="2"/><text x="72" y="375" fill="#FFF4F8" font-size="22" font-family="DejaVu Sans">Kids</text><rect x="48" y="404" width="220" height="44" rx="18" fill="#3a1b42" stroke="none" stroke-width="2"/><text x="72" y="433" fill="#FFF4F8" font-size="22" font-family="DejaVu Sans">Music</text><rect x="48" y="462" width="220" height="44" rx="18" fill="#3a1b42" stroke="none" stroke-width="2"/><text x="72" y="491" fill="#FFF4F8" font-size="22" font-family="DejaVu Sans">Kurdish</text><rect x="48" y="520" width="220" height="44" rx="18" fill="#3a1b42" stroke="none" stroke-width="2"/><text x="72" y="549" fill="#FFF4F8" font-size="22" font-family="DejaVu Sans">Arabic</text><rect x="48" y="578" width="220" height="44" rx="18" fill="#3a1b42" stroke="none" stroke-width="2"/><text x="72" y="607" fill="#FFF4F8" font-size="22" font-family="DejaVu Sans">Settings</text><rect x="322" y="26" width="932" height="668" rx="36" fill="#241428"/><text x="364" y="92" fill="#FF8A8A" font-size="48" font-family="DejaVu Sans" font-weight="700">Live Channels</text><text x="364" y="128" fill="#D8B7C8" font-size="24" font-family="DejaVu Sans">All categories</text><rect x="364" y="164" width="244" height="186" rx="26" fill="#311738" stroke="#4d2857" stroke-width="2"/><rect x="382" y="182" width="208" height="92" rx="18" fill="url(#g)"/><text x="402" y="238" fill="#FFF4F8" font-size="30" font-family="DejaVu Sans" font-weight="700">KU</text><text x="382" y="300" fill="#FFF4F8" font-size="24" font-family="DejaVu Sans" font-weight="700">Kurdistan TV</text><rect x="382" y="314" width="64" height="24" rx="12" fill="#4B06B9"/><text x="397" y="331" fill="#131313" font-size="14" font-family="DejaVu Sans" font-weight="700">LIVE</text><rect x="648" y="164" width="244" height="186" rx="26" fill="#311738" stroke="#4d2857" stroke-width="2"/><rect x="666" y="182" width="208" height="92" rx="18" fill="url(#g)"/><text x="686" y="238" fill="#FFF4F8" font-size="30" font-family="DejaVu Sans" font-weight="700">RU</text><text x="666" y="300" fill="#FFF4F8" font-size="24" font-family="DejaVu Sans" font-weight="700">Rudaw</text><rect x="666" y="314" width="64" height="24" rx="12" fill="#4B06B9"/><text x="681" y="331" fill="#131313" font-size="14" font-family="DejaVu Sans" font-weight="700">LIVE</text><rect x="932" y="164" width="244" height="186" rx="26" fill="#311738" stroke="#4d2857" stroke-width="2"/><rect x="950" y="182" width="208" height="92" rx="18" fill="url(#g)"/><text x="970" y="238" fill="#FFF4F8" font-size="30" font-family="DejaVu Sans" font-weight="700">BB</text><text x="950" y="300" fill="#FFF4F8" font-size="24" font-family="DejaVu Sans" font-weight="700">BBC News</text><rect x="950" y="314" width="64" height="24" rx="12" fill="#4B06B9"/><text x="965" y="331" fill="#131313" font-size="14" font-family="DejaVu Sans" font-weight="700">LIVE</text><rect x="364" y="390" width="244" height="186" rx="26" fill="#311738" stroke="#4d2857" stroke-width="2"/><rect x="382" y="408" width="208" height="92" rx="18" fill="url(#g)"/><text x="402" y="464" fill="#FFF4F8" font-size="30" font-family="DejaVu Sans" font-weight="700">AL</text><text x="382" y="526" fill="#FFF4F8" font-size="24" font-family="DejaVu Sans" font-weight="700">Al Jazeera</text><rect x="382" y="540" width="64" height="24" rx="12" fill="#4B06B9"/><text x="397" y="557" fill="#131313" font-size="14" font-family="DejaVu Sans" font-weight="700">LIVE</text><rect x="648" y="390" width="244" height="186" rx="26" fill="#311738" stroke="#4d2857" stroke-width="2"/><rect x="666" y="408" width="208" height="92" rx="18" fill="url(#g)"/><text x="686" y="464" fill="#FFF4F8" font-size="30" font-family="DejaVu Sans" font-weight="700">ES</text><text x="666" y="526" fill="#FFF4F8" font-size="24" font-family="DejaVu Sans" font-weight="700">ESPN</text><rect x="666" y="540" width="64" height="24" rx="12" fill="#4B06B9"/><text x="681" y="557" fill="#131313" font-size="14" font-family="DejaVu Sans" font-weight="700">LIVE</text><rect x="932" y="390" width="244" height="186" rx="26" fill="#311738" stroke="#4d2857" stroke-width="2"/><rect x="950" y="408" width="208" height="92" rx="18" fill="url(#g)"/><text x="970" y="464" fill="#FFF4F8" font-size="30" font-family="DejaVu Sans" font-weight="700">BE</text><text x="950" y="526" fill="#FFF4F8" font-size="24" font-family="DejaVu Sans" font-weight="700">beIN Sports</text><rect x="950" y="540" width="64" height="24" rx="12" fill="#4B06B9"/><text x="965" y="557" fill="#131313" font-size="14" font-family="DejaVu Sans" font-weight="700">LIVE</text></svg>